<?xml version="1.0" encoding="utf-8"?>
<!-- Generator: Adobe Illustrator 19.2.1, SVG Export Plug-In . SVG Version: 6.00 Build 0)  -->
<svg version="1.1" id="layer" xmlns="http://www.w3.org/2000/svg" xmlns:xlink="http://www.w3.org/1999/xlink" x="0px" y="0px"
	 viewBox="0 0 652 652" style="enable-background:new 0 0 652 652;" xml:space="preserve">
<style type="text/css">
	.st0{fill:#FFFFFF;}
	.st1{fill:#00A891;}
	.st2{fill-rule:evenodd;clip-rule:evenodd;fill:#FFFFFF;}
	.st3{clip-path:url(#SVGID_2_);}
</style>
<rect x="54.9" y="196.9" class="st0" width="566.1" height="195.1"/>
<rect x="61.3" y="203" class="st1" width="554.1" height="153.2"/>
<g>
	<path class="st0" d="M242.8,254.2c-10.3,1.3-14.1,1.6-35,1.6v5.8H220v64.9h-12.1v5.8H254v-5.8h-11.4v-37.8
		c0.5-8.6,0.9-14.6,5.3-20.1c3.1-3.7,7.9-6.6,13.4-6.6c9.9,0,11,8.6,11,19.1v45.4h-9.9v5.8h43v-5.8h-11V292c0-9.7,0.4-18,7.1-24.5
		c3.7-3.5,8.1-5.5,12.1-5.5c10.4,0,10.4,9,10.4,18.3v46.4h-10.1v5.8h44.1v-5.8h-11.4v-46.9c-0.5-9.9-0.7-26-24.9-26
		c-17.8,0-24.7,11.2-27.5,15.7c-4.2-7.9-8.8-15.9-25.3-15.9c-14.3,0-21.1,7.9-26.4,14.1V254.2z"/>
	<path class="st2" d="M366.3,261.7h12.5v64.9h-12.5v5.8h47.1v-5.8h-11.7v-72.4c-8.6,0.5-13.4,0.9-17.9,1.3
		c-4.8,0.2-9.2,0.4-17.4,0.4V261.7z M374.5,229.8c0,7.3,5.9,13.2,13.2,13.2c7.3,0,13.2-5.9,13.2-13.2c0-7.3-5.9-13.2-13.2-13.2
		C380.4,216.6,374.5,222.5,374.5,229.8"/>
	<path class="st0" d="M492.2,309.2c-4.2,7.2-11.4,18.2-25.9,19c-2.9,0.2-5.7,0.1-8.5-1.6c-8-4.4-8.7-12.8-9.2-18.2
		c-0.4-4.4-0.7-9.2-0.7-14.1c0,0-0.3-20.1,3.1-26.4c4.5-8.3,11-9.3,15.2-9.3c5.2,0,7.1,1,11.4,3.7c-3.3,3-6.8,6.3-6.8,12.4
		c0,5,3.5,11.7,12,11.7c6.1,0,12.4-3.7,12.4-11.8c0-12.8-13.7-21.3-30.3-21.3c-20.9,0-42.9,13.9-42.9,42.5c0,22.6,16.1,39,41.4,39
		c22.6,0,30.5-14.4,34.8-22.2L492.2,309.2z"/>
	<path class="st2" d="M575.5,277.5c0-6.5,0.2-15.5-12.4-20.9c-5.4-2.2-11.8-3.3-18.5-3.3c-17.9,0-32.4,8.3-32.4,20.2
		c0,5.9,4.3,10.2,10.4,10.2c6.3,0,10.5-4.8,10.5-10.4c0-1.3-0.4-2.6-0.9-3.7c-0.5-1.5-1.7-2.6-2.2-4.1c-0.4-0.7-0.3-1-0.3-1.7
		c0-1.7,2.6-5.4,10.9-5.4c12.4,0,12.9,6,12.9,13.7l0,13.8c-11.5,1.1-26.5,2.8-36.9,10.3c-8.1,5.9-10.8,13.9-10.8,19.9
		c0,5.7,2.8,18.7,21.8,18.7c14.4,0,22.6-7.9,26.3-12.1c2.4,4.8,6.1,12.1,16.6,12.1c9.1,0,14.8-5.7,18.1-9.2l-3.4-4.5
		c-1.5,1.1-3.3,2.8-5.5,2.8c-4.4,0-4.2-4.9-4.2-9.2V277.5z M553.5,306.2c0,4.8,0.2,10.5-5.2,15c-2.2,1.7-5,3-8.1,3
		c-6.5,0-12.6-5-12.6-14.2c0-16.5,16.1-17.4,25.9-17.9V306.2z"/>
	<rect x="61.2" y="355.9" width="554.1" height="29.8"/>
	<path class="st0" d="M123.4,326.6v5.8H80.1v-5.8h8.1c8.1-0.5,10.4-4.9,12.9-11.9c13.4-37.3,26.4-74.4,39.8-111.7l8.6,0
		c0,0,30.3,82.4,45.4,123.6h14.4v5.8l-58.6,0l0-5.8h16.8c-10.4-28.4-20.7-56.8-31.2-85.4l-12,34.2c-1.3,3.7-10,30.5-14,42
		c-1.1,3.9-0.9,3.7-0.8,5.5C109.6,326.1,113.8,326.8,123.4,326.6"/>
	<polygon class="st0" points="21,280.4 141.7,280.4 150,302.5 28.3,302.5 	"/>
</g>
<g>
	<defs>
		<polygon id="SVGID_1_" points="21,280.4 28.3,302.5 150,302.5 141.7,280.4 		"/>
	</defs>
	<clipPath id="SVGID_2_">
		<use xlink:href="#SVGID_1_"  style="overflow:visible;"/>
	</clipPath>
	<polygon class="st3" points="16.2,278.5 144,278.5 150.2,295 22.6,295 	"/>
</g>
<g>
	<path d="M105.8,431.8H97c0.8-2.4,4.5-15.4,4.5-15.4h0C101.8,417.8,105.5,431,105.8,431.8 M116.7,446.3l-11.5-36.1h-6.9l-11.8,36.1
		h6.2l2.9-9.5h11.7l2.9,9.5H116.7z"/>
	<path d="M138,446.8c-7.1,0-9.3-3.6-9.3-8v-19.5h4.5v18.2c0,4.2,1.5,5.5,4.8,5.5c3.3,0,4.9-1.9,4.9-5.5v-18.2h4.5v19.5
		C147.4,443.7,144,446.8,138,446.8"/>
	<polygon points="177.5,423 170.7,423 170.7,446.3 166.2,446.3 166.2,423 159.4,423 159.4,419.2 178.1,419.2 	"/>
	<path d="M199.7,443.3c-4.6,0-6.4-3.9-6.4-10.8c0-6.5,1.7-10.2,6.3-10.2c4.9,0,6.2,4.1,6.2,10.7
		C205.9,440.3,203.8,443.3,199.7,443.3 M199.9,446.7c7,0,11.1-5.5,11.1-13.9c0-7.9-3.7-13.9-11.3-13.9c-6.8,0-11.3,5-11.3,13.9
		C188.4,440.8,192.1,446.7,199.9,446.7"/>
	<polygon points="301.8,446.3 301.8,429.7 289.5,429.7 289.5,446.3 283.6,446.3 283.6,410.3 289.5,410.3 289.5,424.7 301.8,424.7 
		301.8,410.3 307.8,410.3 307.8,446.3 	"/>
	<path d="M334.5,443.3c-4.6,0-6.4-3.9-6.4-10.8c0-6.5,1.7-10.2,6.3-10.2c4.9,0,6.2,4.1,6.2,10.7
		C340.6,440.3,338.5,443.3,334.5,443.3 M334.6,446.7c7,0,11.1-5.5,11.1-13.9c0-7.9-3.7-13.9-11.3-13.9c-6.8,0-11.3,5-11.3,13.9
		C323.1,440.8,326.8,446.7,334.6,446.7"/>
	<path d="M381.5,446.3l-1.3-16.8c-0.1-1.7-0.2-3.8-0.2-4.6c-0.2,0.9-0.5,2.5-1.1,4.2l-4.9,17.1h-3.8l-4.5-16.4c-0.5-1.8-1-4.1-1.2-5
		c0,0.9-0.2,3.4-0.3,5.1l-1.2,16.3h-4.4l2.5-27.1h6l4.1,15.3c0.6,2.3,0.9,3.7,1,4.5c0.1-0.8,0.5-2.5,1-4.4l4.3-15.4h6l2.4,27.1
		H381.5z"/>
	<polygon points="400.6,446.3 400.6,419.2 415.6,419.2 415,422.9 405.1,422.9 405.1,430.3 413.4,430.3 413.4,434 405.2,434 
		405.2,442.5 416,442.5 416,446.3 	"/>
	<polygon points="510.1,446.3 491.7,446.3 491.7,410.3 497.8,410.3 497.8,441.3 511.1,441.3 	"/>
	<rect x="523.9" y="419.2" width="4.6" height="27.1"/>
	<polygon points="557.8,422.9 548.6,422.9 548.6,430.3 556.1,430.3 556.1,433.9 548.6,433.9 548.6,446.3 544.1,446.3 544.1,419.2 
		558.4,419.2 	"/>
	<polygon points="571.1,446.3 571.1,419.2 586,419.2 585.5,422.9 575.5,422.9 575.5,430.3 583.9,430.3 583.9,434 575.6,434 
		575.6,442.5 586.5,442.5 586.5,446.3 	"/>
</g>
</svg>
