<svg xmlns="http://www.w3.org/2000/svg" fill-rule="evenodd" stroke-miterlimit="1.41" viewBox="0 0 105 50" clip-rule="evenodd" stroke-linejoin="round"><path fill="none" d="M0 0h105v50H0z"/><clipPath id="a"><path d="M0 0h105v50H0z"/></clipPath><g clip-path="url(#a)"><g fill-rule="nonzero"><path fill="#c9202f" d="M52.14 0v5.02l52.15 13.5v-5L52.1 0zm26.34 49.93h-8.76V39.36h-6.76v10.57H54.2V21.7h8.76v10.83h6.76V21.7h8.76v28.23zm10.67-6.3v-5.1h4.8c1.42 0 2.58 1.15 2.58 2.56 0 1.4-1.16 2.5-2.6 2.5h-4.78zm0-11.1v-4.77h4.42c1.34 0 2.42 1.06 2.42 2.38 0 1.32-1.1 2.4-2.5 2.4h-4.4zm7.55 17.4c4.58 0 8.3-3.67 8.3-8.2 0-3.23-2.4-5.9-5.55-6.4v-.1c2.78-.7 4.84-3.16 4.84-6.12 0-4.3-3.5-7.4-8.1-7.4H81.1V50h15.6z"/><path fill="#1c2759" d="M52.14 0v5.02L0 18.52v-5L52.14 0zm-8.12 21.7h-9.35L25.8 49.94h8.72l1.62-5.55h6.4l1.63 5.5h8.73l-8.88-28.2zm-2.65 12.77l1.26 3.8-3.3-2.35-3.27 2.35 1.26-3.8-3.3-2.35h4.07l1.2-3.8 1.23 3.8h4.04l-3.28 2.35zM16.92 21.7l.24 14.56L8.3 21.7H0v28.23h7.57L7.34 33.7l9.97 16.23h7.2V21.7H17z"/></g><text x="100.58" y="4.3" font-family="'ArialMT', 'Arial', sans-serif" font-size="6">®</text></g></svg>