<?xml version="1.0" encoding="utf-8"?>
<!-- Generator: Adobe Illustrator 19.2.1, SVG Export Plug-In . SVG Version: 6.00 Build 0)  -->
<svg version="1.1" id="layer" xmlns="http://www.w3.org/2000/svg" xmlns:xlink="http://www.w3.org/1999/xlink" x="0px" y="0px"
	 viewBox="0 0 652 652" style="enable-background:new 0 0 652 652;" xml:space="preserve">
<style type="text/css">
	.st0{fill:#3D4647;}
	.st1{fill:#6EBE4B;}
</style>
<polygon class="st0" points="21,262.7 21,314.9 123.1,255.5 180.6,288.4 169.2,295.1 123.1,268.6 83.1,291.7 174.6,344.7 225.3,315 
	225.3,262.7 123.1,203.7 "/>
<path class="st1" d="M21,328.1v52.4l102.2,58.9l102.1-58.9v-52.3l-102.1,59.4l-57.5-32.9l11.4-6.7l46,26.5l40-23.2l-91.5-53
	L21,328.1z"/>
<path class="st0" d="M366.3,276.7c-12.4,0-22.2,4.3-29.4,12.9c-6.9,8.1-10.3,18.4-10.3,30.8s3.5,22.7,10.3,30.8
	c7.2,8.6,17,12.9,29.4,12.9c12.3,0,22.2-4.3,29.9-12.9c7.2-8.1,10.8-18.4,10.8-30.8s-3.6-22.7-10.8-30.8
	C388.5,281,378.6,276.7,366.3,276.7 M327.5,281.3c9.2-13.5,22.9-20.2,41.1-20.2c16.5,0,30,5.7,40.2,17.2
	c10.3,11.3,15.4,25.3,15.4,42c0,16.7-5.1,30.7-15.4,42.1c-10.3,11.5-24.1,17.3-41.4,17.3c-17.3,0-30.7-6.8-40-20.5v64.1h-17.2V262.9
	h17.2V281.3z"/>
<polygon class="st0" points="457.1,377.8 457.1,278.1 433.7,278.1 433.7,262.9 457.1,262.9 457.1,221.8 474.3,221.8 474.3,262.9 
	500.8,262.9 500.8,278.1 474.3,278.1 474.3,377.8 "/>
<path class="st0" d="M570.4,364.1c7.4,0,13.9-2.1,19.5-6.2c5.7-4.1,9.8-9.5,12.4-16.1H621c-3.5,11.3-10,20.4-19.3,27.3
	c-9.8,7.1-21.5,10.6-34.9,10.6c-16.9,0-30.6-5.7-41.2-17.2c-10.3-11.2-15.4-25.2-15.4-42.1s5.1-30.9,15.4-42.1
	c10.6-11.5,24.3-17.2,41.2-17.2c13.5,0,25.1,3.5,34.9,10.6c9.3,6.9,15.8,16,19.3,27.4h-18.6c-2.6-6.6-6.7-12-12.4-16.1
	c-5.7-4.1-12.2-6.2-19.5-6.2c-7.4,0-13.6,1.2-18.7,3.5c-5.1,2.3-9.5,5.4-13,9.4c-7.5,8.3-11.3,18.5-11.3,30.8
	c0,12.3,3.7,22.5,11.3,30.8C546.4,359.8,556.9,364.1,570.4,364.1"/>
</svg>
